<svg xmlns="http://www.w3.org/2000/svg" xmlns:xlink="http://www.w3.org/1999/xlink" width="400" zoomAndPan="magnify" viewBox="0 0 300 299.999988" height="400" preserveAspectRatio="xMidYMid meet" version="1.0"><defs><g/><clipPath id="67357a2dea"><path d="M 45.75 0 L 254.25 0 C 266.382812 0 278.019531 4.820312 286.601562 13.398438 C 295.179688 21.980469 300 33.617188 300 45.75 L 300 254.25 C 300 266.382812 295.179688 278.019531 286.601562 286.601562 C 278.019531 295.179688 266.382812 300 254.25 300 L 45.75 300 C 33.617188 300 21.980469 295.179688 13.398438 286.601562 C 4.820312 278.019531 0 266.382812 0 254.25 L 0 45.75 C 0 33.617188 4.820312 21.980469 13.398438 13.398438 C 21.980469 4.820312 33.617188 0 45.75 0 Z M 45.75 0 " clip-rule="nonzero"/></clipPath><clipPath id="a18708ca55"><path d="M 27.40625 22 L 272.652344 22 L 272.652344 278 L 27.40625 278 Z M 27.40625 22 " clip-rule="nonzero"/></clipPath><clipPath id="90aac1a0a7"><path d="M 141.464844 275.746094 L 35.863281 217.296875 C 30.601562 214.382812 27.335938 208.84375 27.335938 202.828125 L 27.335938 97.164062 C 27.335938 91.148438 30.601562 85.605469 35.863281 82.695312 L 141.464844 24.246094 C 146.769531 21.308594 153.21875 21.308594 158.523438 24.246094 L 264.125 82.695312 C 269.386719 85.605469 272.652344 91.148438 272.652344 97.164062 L 272.652344 202.828125 C 272.652344 208.84375 269.386719 214.382812 264.125 217.296875 L 158.523438 275.746094 C 153.21875 278.683594 146.769531 278.683594 141.464844 275.746094 Z M 141.464844 275.746094 " clip-rule="nonzero"/></clipPath><clipPath id="59cb1032e1"><path d="M 87 22 L 212.898438 22 L 212.898438 151 L 87 151 Z M 87 22 " clip-rule="nonzero"/></clipPath><clipPath id="1ec0ccaefb"><path d="M 141.464844 148.621094 L 95.621094 123.25 C 90.359375 120.335938 87.09375 114.796875 87.09375 108.78125 L 87.09375 64.09375 C 87.09375 58.078125 90.359375 52.535156 95.621094 49.621094 L 141.464844 24.25 C 146.773438 21.3125 153.214844 21.3125 158.523438 24.25 L 204.367188 49.621094 C 209.628906 52.535156 212.898438 58.078125 212.898438 64.09375 L 212.898438 108.78125 C 212.898438 114.796875 209.628906 120.335938 204.367188 123.25 L 158.523438 148.621094 C 153.214844 151.558594 146.773438 151.558594 141.464844 148.621094 Z M 141.464844 148.621094 " clip-rule="nonzero"/></clipPath><clipPath id="ebba1e7ee4"><path d="M 27.558594 109.28125 L 153.558594 109.28125 L 153.558594 245 L 27.558594 245 Z M 27.558594 109.28125 " clip-rule="nonzero"/></clipPath><clipPath id="5a3bc53303"><path d="M 82.125 242.175781 L 36.28125 216.800781 C 31.015625 213.886719 27.75 208.347656 27.75 202.332031 L 27.75 151.667969 C 27.75 145.652344 31.015625 140.113281 36.28125 137.199219 L 82.125 111.824219 C 87.429688 108.886719 93.875 108.886719 99.183594 111.824219 L 145.027344 137.199219 C 150.289062 140.113281 153.558594 145.652344 153.558594 151.667969 L 153.558594 202.332031 C 153.558594 208.347656 150.289062 213.886719 145.027344 216.800781 L 99.183594 242.175781 C 93.875 245.113281 87.429688 245.113281 82.125 242.175781 Z M 82.125 242.175781 " clip-rule="nonzero"/></clipPath><clipPath id="564663e912"><path d="M 144.40625 109.277344 L 272.65625 109.277344 L 272.65625 245 L 144.40625 245 Z M 144.40625 109.277344 " clip-rule="nonzero"/></clipPath><clipPath id="d02b67f721"><path d="M 199.855469 242.246094 L 152.765625 216.722656 C 147.484375 213.859375 144.195312 208.335938 144.195312 202.328125 L 144.195312 151.667969 C 144.195312 145.660156 147.484375 140.132812 152.765625 137.269531 L 199.855469 111.746094 C 205.199219 108.847656 211.648438 108.847656 216.996094 111.746094 L 264.085938 137.269531 C 269.367188 140.132812 272.65625 145.660156 272.65625 151.667969 L 272.65625 202.328125 C 272.65625 208.335938 269.367188 213.859375 264.085938 216.722656 L 216.996094 242.246094 C 211.648438 245.144531 205.199219 245.144531 199.855469 242.246094 Z M 199.855469 242.246094 " clip-rule="nonzero"/></clipPath></defs><g clip-path="url(#67357a2dea)"><rect x="-30" width="360" fill="#faf9f4" y="-29.999999" height="359.999986" fill-opacity="1"/></g><g clip-path="url(#a18708ca55)"><g clip-path="url(#90aac1a0a7)"><path stroke-linecap="butt" transform="matrix(0, 0.75, -0.75, 0, 272.65346, 19.52467)" fill="none" stroke-linejoin="miter" d="M 341.628571 174.918158 L 263.696278 315.720244 C 259.810861 322.735869 252.425445 327.090035 244.404611 327.090035 L 103.519192 327.090035 C 95.498358 327.090035 88.107733 322.735869 84.227525 315.720244 L 6.295232 174.918158 C 2.378565 167.845241 2.378565 159.246282 6.295232 152.173366 L 84.227525 11.37128 C 88.107733 4.355655 95.498358 0.00148798 103.519192 0.00148798 L 244.404611 0.00148798 C 252.425445 0.00148798 259.810861 4.355655 263.696278 11.37128 L 341.628571 152.173366 C 345.545238 159.246282 345.545238 167.845241 341.628571 174.918158 Z M 341.628571 174.918158 " stroke="#ffde59" stroke-width="30" stroke-opacity="1" stroke-miterlimit="4"/></g></g><g clip-path="url(#59cb1032e1)"><g clip-path="url(#1ec0ccaefb)"><path stroke-linecap="butt" transform="matrix(0, 0.75, -0.75, 0, 212.896513, 19.527713)" fill="none" stroke-linejoin="miter" d="M 172.124521 95.242233 L 138.296393 156.367238 C 134.410976 163.382863 127.025559 167.737031 119.004725 167.737031 L 59.421387 167.737031 C 51.400553 167.737031 44.009927 163.382863 40.12451 156.367238 L 6.296383 95.242233 C 2.379716 88.164107 2.379716 79.575565 6.296383 72.497439 L 40.12451 11.372434 C 44.009927 4.356809 51.400553 -0.00256652 59.421387 -0.00256652 L 119.004725 -0.00256652 C 127.025559 -0.00256652 134.410976 4.356809 138.296393 11.372434 L 172.124521 72.497439 C 176.041188 79.575565 176.041188 88.164107 172.124521 95.242233 Z M 172.124521 95.242233 " stroke="#ffde59" stroke-width="30" stroke-opacity="1" stroke-miterlimit="4"/></g></g><g clip-path="url(#ebba1e7ee4)"><g clip-path="url(#5a3bc53303)"><path stroke-linecap="butt" transform="matrix(0, 0.75, -0.75, 0, 153.557528, 107.103586)" fill="none" stroke-linejoin="miter" d="M 180.096274 95.243378 L 146.262938 156.368383 C 142.377521 163.389217 134.992104 167.743384 126.97127 167.743384 L 59.419181 167.743384 C 51.398347 167.743384 44.01293 163.389217 40.127513 156.368383 L 6.294177 95.243378 C 2.37751 88.170461 2.37751 79.57671 6.294177 72.498585 L 40.127513 11.37358 C 44.01293 4.357954 51.398347 -0.00142119 59.419181 -0.00142119 L 126.97127 -0.00142119 C 134.992104 -0.00142119 142.377521 4.357954 146.262938 11.37358 L 180.096274 72.498585 C 184.012941 79.57671 184.012941 88.170461 180.096274 95.243378 Z M 180.096274 95.243378 " stroke="#ffde59" stroke-width="30" stroke-opacity="1" stroke-miterlimit="4"/></g></g><g clip-path="url(#564663e912)"><g clip-path="url(#d02b67f721)"><path stroke-linecap="butt" transform="matrix(0, 0.75, -0.75, 0, 272.655745, 107.101309)" fill="none" stroke-linejoin="miter" d="M 180.193061 97.067042 L 146.161808 159.853506 C 142.3441 166.895173 134.979516 171.28059 126.969099 171.28059 L 59.422218 171.28059 C 51.411801 171.28059 44.042008 166.895173 40.2243 159.853506 L 6.193047 97.067042 C 2.328463 89.942042 2.328463 81.343083 6.193047 74.212874 L 40.2243 11.42641 C 44.042008 4.384743 51.411801 -0.000673956 59.422218 -0.000673956 L 126.969099 -0.000673956 C 134.979516 -0.000673956 142.3441 4.384743 146.161808 11.42641 L 180.193061 74.212874 C 184.057645 81.343083 184.057645 89.942042 180.193061 97.067042 Z M 180.193061 97.067042 " stroke="#ffde59" stroke-width="30" stroke-opacity="1" stroke-miterlimit="4"/></g></g><g fill="#000000" fill-opacity="1"><g transform="translate(94.980958, 217.124982)"><g><path d="M 41.609375 -127.375 C 46.472656 -127.375 51.140625 -127.175781 55.609375 -126.78125 C 60.085938 -126.382812 64.757812 -125.929688 69.625 -125.421875 C 74.5 -124.910156 80.046875 -124.457031 86.265625 -124.0625 C 92.492188 -123.664062 99.800781 -123.46875 108.1875 -123.46875 C 113.164062 -123.46875 117.066406 -123.921875 119.890625 -124.828125 C 122.722656 -125.734375 124.140625 -126.1875 124.140625 -126.1875 C 124.597656 -125.726562 125.023438 -125.015625 125.421875 -124.046875 C 125.816406 -123.085938 126.015625 -121.929688 126.015625 -120.578125 C 126.015625 -116.160156 124.425781 -112.394531 121.25 -109.28125 C 118.082031 -106.164062 112.820312 -104.609375 105.46875 -104.609375 C 101.5 -104.609375 98.015625 -104.890625 95.015625 -105.453125 C 92.015625 -106.023438 89.128906 -106.734375 86.359375 -107.578125 C 83.585938 -108.429688 80.554688 -109.367188 77.265625 -110.390625 L 61.140625 -17.828125 C 60.117188 -11.941406 59.832031 -7.78125 60.28125 -5.34375 C 60.738281 -2.914062 60.96875 -1.703125 60.96875 -1.703125 C 60.96875 -1.703125 60.226562 -1.414062 58.75 -0.84375 C 57.28125 -0.28125 54.789062 0 51.28125 0 C 45.0625 0 41.101562 -1.441406 39.40625 -4.328125 C 37.707031 -7.210938 37.421875 -11.941406 38.546875 -18.515625 L 54.515625 -109.703125 C 54.859375 -111.742188 55.082031 -113.359375 55.1875 -114.546875 C 55.300781 -115.734375 55.359375 -116.328125 55.359375 -116.328125 C 52.753906 -116.898438 50.570312 -117.328125 48.8125 -117.609375 C 47.0625 -117.890625 44.546875 -118.03125 41.265625 -118.03125 C 33.566406 -118.03125 27.679688 -116.1875 23.609375 -112.5 C 19.535156 -108.820312 17.5 -104.550781 17.5 -99.6875 C 17.5 -97.3125 18.09375 -95.414062 19.28125 -94 C 20.46875 -92.582031 22.132812 -91.875 24.28125 -91.875 C 25.1875 -91.875 25.894531 -91.957031 26.40625 -92.125 C 26.914062 -92.300781 27.171875 -92.390625 27.171875 -92.390625 C 27.171875 -92.390625 27.195312 -92.273438 27.25 -92.046875 C 27.3125 -91.816406 27.34375 -91.421875 27.34375 -90.859375 C 27.34375 -88.816406 26.265625 -86.71875 24.109375 -84.5625 C 21.960938 -82.414062 18.738281 -81.34375 14.4375 -81.34375 C 8.882812 -81.34375 4.523438 -82.898438 1.359375 -86.015625 C -1.804688 -89.128906 -3.390625 -93.234375 -3.390625 -98.328125 C -3.390625 -106.703125 0.34375 -113.632812 7.8125 -119.125 C 15.28125 -124.625 26.546875 -127.375 41.609375 -127.375 Z M 41.609375 -127.375 "/></g></g></g></svg>