<svg xmlns="http://www.w3.org/2000/svg" xmlns:xlink="http://www.w3.org/1999/xlink" width="512" zoomAndPan="magnify" viewBox="0 0 384 383.999986" height="512" preserveAspectRatio="xMidYMid meet" version="1.0"><defs><g/><clipPath id="f01b9fc24d"><path d="M 58.558594 0 L 325.441406 0 C 340.972656 0 355.867188 6.167969 366.847656 17.152344 C 377.832031 28.132812 384 43.027344 384 58.558594 L 384 325.441406 C 384 340.972656 377.832031 355.867188 366.847656 366.847656 C 355.867188 377.832031 340.972656 384 325.441406 384 L 58.558594 384 C 43.027344 384 28.132812 377.832031 17.152344 366.847656 C 6.167969 355.867188 0 340.972656 0 325.441406 L 0 58.558594 C 0 43.027344 6.167969 28.132812 17.152344 17.152344 C 28.132812 6.167969 43.027344 0 58.558594 0 Z M 58.558594 0 " clip-rule="nonzero"/></clipPath><clipPath id="a131353d4a"><path d="M 35.078125 27 L 348.996094 27 L 348.996094 357 L 35.078125 357 Z M 35.078125 27 " clip-rule="nonzero"/></clipPath><clipPath id="07698ba6df"><path d="M 183.460938 354.273438 L 43.519531 276.820312 C 38.253906 273.90625 34.988281 268.363281 34.988281 262.347656 L 34.988281 121.640625 C 34.988281 115.625 38.253906 110.082031 43.519531 107.167969 L 183.460938 29.710938 C 188.769531 26.773438 195.214844 26.773438 200.523438 29.710938 L 340.464844 107.167969 C 345.730469 110.082031 348.996094 115.625 348.996094 121.640625 L 348.996094 262.347656 C 348.996094 268.363281 345.730469 273.90625 340.464844 276.820312 L 200.523438 354.273438 C 195.214844 357.210938 188.769531 357.210938 183.460938 354.273438 Z M 183.460938 354.273438 " clip-rule="nonzero"/></clipPath><clipPath id="09656a08ec"><path d="M 111.234375 27 L 272.507812 27 L 272.507812 194 L 111.234375 194 Z M 111.234375 27 " clip-rule="nonzero"/></clipPath><clipPath id="850d1e0e5e"><path d="M 183.460938 191.558594 L 120.007812 156.4375 C 114.742188 153.523438 111.476562 147.984375 111.476562 141.96875 L 111.476562 79.308594 C 111.476562 73.292969 114.742188 67.75 120.007812 64.839844 L 183.460938 29.714844 C 188.769531 26.777344 195.214844 26.777344 200.523438 29.714844 L 263.976562 64.839844 C 269.242188 67.75 272.507812 73.292969 272.507812 79.308594 L 272.507812 141.96875 C 272.507812 147.984375 269.242188 153.523438 263.976562 156.4375 L 200.523438 191.558594 C 195.214844 194.496094 188.769531 194.496094 183.460938 191.558594 Z M 183.460938 191.558594 " clip-rule="nonzero"/></clipPath><clipPath id="85b52213e5"><path d="M 35.277344 139 L 196.554688 139 L 196.554688 314 L 35.277344 314 Z M 35.277344 139 " clip-rule="nonzero"/></clipPath><clipPath id="dc8076b433"><path d="M 107.507812 311.304688 L 44.050781 276.183594 C 38.785156 273.269531 35.519531 267.730469 35.519531 261.714844 L 35.519531 191.40625 C 35.519531 185.390625 38.785156 179.851562 44.050781 176.9375 L 107.507812 141.8125 C 112.8125 138.875 119.257812 138.875 124.566406 141.8125 L 188.023438 176.9375 C 193.285156 179.851562 196.554688 185.390625 196.554688 191.40625 L 196.554688 261.714844 C 196.554688 267.730469 193.285156 273.269531 188.023438 276.183594 L 124.566406 311.304688 C 119.257812 314.242188 112.8125 314.242188 107.507812 311.304688 Z M 107.507812 311.304688 " clip-rule="nonzero"/></clipPath><clipPath id="5602b547f2"><path d="M 184.839844 139 L 349 139 L 349 314 L 184.839844 314 Z M 184.839844 139 " clip-rule="nonzero"/></clipPath><clipPath id="f4caaf007d"><path d="M 258.214844 311.375 L 193.140625 276.105469 C 187.859375 273.242188 184.570312 267.714844 184.570312 261.707031 L 184.570312 191.402344 C 184.570312 185.394531 187.859375 179.871094 193.140625 177.007812 L 258.214844 141.734375 C 263.558594 138.835938 270.007812 138.835938 275.355469 141.734375 L 340.429688 177.007812 C 345.710938 179.871094 349 185.394531 349 191.402344 L 349 261.707031 C 349 267.714844 345.710938 273.242188 340.429688 276.105469 L 275.355469 311.375 C 270.007812 314.273438 263.558594 314.273438 258.214844 311.375 Z M 258.214844 311.375 " clip-rule="nonzero"/></clipPath></defs><g clip-path="url(#f01b9fc24d)"><rect x="-38.4" width="460.8" fill="#faf9f4" y="-38.399999" height="460.799983" fill-opacity="1"/></g><g clip-path="url(#a131353d4a)"><g clip-path="url(#07698ba6df)"><path stroke-linecap="butt" transform="matrix(0, 0.96, -0.96, 0, 348.996366, 24.991575)" fill="none" stroke-linejoin="miter" d="M 343.001968 172.432752 L 262.321623 318.205061 C 259.286141 323.690088 253.512215 327.091781 247.245938 327.091781 L 100.676102 327.091781 C 94.409826 327.091781 88.635899 323.690088 85.600417 318.205061 L 4.916003 172.432752 C 1.856107 166.902966 1.856107 160.189098 4.916003 154.659313 L 85.600417 8.887003 C 88.635899 3.401977 94.409826 0.000283564 100.676102 0.000283564 L 247.245938 0.000283564 C 253.512215 0.000283564 259.286141 3.401977 262.321623 8.887003 L 343.001968 154.659313 C 346.061864 160.189098 346.061864 166.902966 343.001968 172.432752 Z M 343.001968 172.432752 " stroke="#ffde59" stroke-width="23.4375" stroke-opacity="1" stroke-miterlimit="4"/></g></g><g clip-path="url(#09656a08ec)"><g clip-path="url(#850d1e0e5e)"><path stroke-linecap="butt" transform="matrix(0, 0.96, -0.96, 0, 272.507534, 24.995471)" fill="none" stroke-linejoin="miter" d="M 173.503267 92.756879 L 136.918791 158.85389 C 133.883309 164.338916 128.113452 167.740609 121.847175 167.740609 L 56.576174 167.740609 C 50.309897 167.740609 44.535971 164.338916 41.504558 158.85389 L 4.916014 92.756879 C 1.856118 87.227094 1.856118 80.513226 4.916014 74.98344 L 41.504558 8.88643 C 44.535971 3.401403 50.309897 -0.00028966 56.576174 -0.00028966 L 121.847175 -0.00028966 C 128.113452 -0.00028966 133.883309 3.401403 136.918791 8.88643 L 173.503267 74.98344 C 176.563163 80.513226 176.563163 87.227094 173.503267 92.756879 Z M 173.503267 92.756879 " stroke="#ffde59" stroke-width="23.4375" stroke-opacity="1" stroke-miterlimit="4"/></g></g><g clip-path="url(#85b52213e5)"><g clip-path="url(#dc8076b433)"><path stroke-linecap="butt" transform="matrix(0, 0.96, -0.96, 0, 196.553605, 137.092592)" fill="none" stroke-linejoin="miter" d="M 181.470947 92.756041 L 144.886471 158.857121 C 141.850989 164.342147 136.081132 167.74384 129.814855 167.74384 L 56.576731 167.74384 C 50.310455 167.74384 44.540597 164.342147 41.505115 158.857121 L 4.916571 92.756041 C 1.856675 87.230325 1.856675 80.516457 4.916571 74.986672 L 41.505115 8.885592 C 44.540597 3.404635 50.310455 -0.00112735 56.576731 -0.00112735 L 129.814855 -0.00112735 C 136.081132 -0.00112735 141.850989 3.404635 144.886471 8.885592 L 181.470947 74.986672 C 184.530843 80.516457 184.530843 87.230325 181.470947 92.756041 Z M 181.470947 92.756041 " stroke="#ffde59" stroke-width="23.4375" stroke-opacity="1" stroke-miterlimit="4"/></g></g><g clip-path="url(#5602b547f2)"><g clip-path="url(#f4caaf007d)"><path stroke-linecap="butt" transform="matrix(0, 0.96, -0.96, 0, 348.999325, 137.089662)" fill="none" stroke-linejoin="miter" d="M 181.547251 94.56718 L 144.808151 162.352834 C 141.825566 167.854136 136.067915 171.280244 129.809776 171.280244 L 56.575718 171.280244 C 50.317579 171.280244 44.563997 167.854136 41.581412 162.352834 L 4.838243 94.56718 C 1.819037 89.000773 1.819037 82.282836 4.838243 76.71236 L 41.581412 8.926707 C 44.563997 3.425404 50.317579 -0.000702947 56.575718 -0.000702947 L 129.809776 -0.000702947 C 136.067915 -0.000702947 141.825566 3.425404 144.808151 8.926707 L 181.547251 76.71236 C 184.566457 82.282836 184.566457 89.000773 181.547251 94.56718 Z M 181.547251 94.56718 " stroke="#ffde59" stroke-width="23.4375" stroke-opacity="1" stroke-miterlimit="4"/></g></g><g fill="#000000" fill-opacity="1"><g transform="translate(121.575636, 277.919978)"><g><path d="M 53.25 -163.03125 C 59.488281 -163.03125 65.46875 -162.773438 71.1875 -162.265625 C 76.914062 -161.765625 82.894531 -161.1875 89.125 -160.53125 C 95.351562 -159.875 102.453125 -159.289062 110.421875 -158.78125 C 118.390625 -158.28125 127.738281 -158.03125 138.46875 -158.03125 C 144.84375 -158.03125 149.84375 -158.609375 153.46875 -159.765625 C 157.09375 -160.929688 158.90625 -161.515625 158.90625 -161.515625 C 159.476562 -160.929688 160.019531 -160.019531 160.53125 -158.78125 C 161.039062 -157.550781 161.296875 -156.070312 161.296875 -154.34375 C 161.296875 -148.6875 159.265625 -143.863281 155.203125 -139.875 C 151.148438 -135.894531 144.410156 -133.90625 134.984375 -133.90625 C 129.910156 -133.90625 125.453125 -134.265625 121.609375 -134.984375 C 117.773438 -135.710938 114.082031 -136.617188 110.53125 -137.703125 C 106.976562 -138.796875 103.101562 -139.992188 98.90625 -141.296875 L 78.25 -22.828125 C 76.945312 -15.285156 76.582031 -9.957031 77.15625 -6.84375 C 77.738281 -3.726562 78.03125 -2.171875 78.03125 -2.171875 C 78.03125 -2.171875 77.085938 -1.804688 75.203125 -1.078125 C 73.328125 -0.359375 70.140625 0 65.640625 0 C 57.671875 0 52.597656 -1.847656 50.421875 -5.546875 C 48.253906 -9.242188 47.894531 -15.289062 49.34375 -23.6875 L 69.78125 -140.421875 C 70.207031 -143.035156 70.492188 -145.101562 70.640625 -146.625 C 70.785156 -148.144531 70.859375 -148.90625 70.859375 -148.90625 C 67.523438 -149.625 64.734375 -150.164062 62.484375 -150.53125 C 60.242188 -150.894531 57.023438 -151.078125 52.828125 -151.078125 C 42.972656 -151.078125 35.4375 -148.722656 30.21875 -144.015625 C 25 -139.304688 22.390625 -133.832031 22.390625 -127.59375 C 22.390625 -124.550781 23.148438 -122.125 24.671875 -120.3125 C 26.191406 -118.5 28.328125 -117.59375 31.078125 -117.59375 C 32.242188 -117.59375 33.148438 -117.703125 33.796875 -117.921875 C 34.453125 -118.140625 34.78125 -118.25 34.78125 -118.25 C 34.78125 -118.25 34.816406 -118.101562 34.890625 -117.8125 C 34.960938 -117.519531 35 -117.015625 35 -116.296875 C 35 -113.691406 33.617188 -111.007812 30.859375 -108.25 C 28.109375 -105.5 23.984375 -104.125 18.484375 -104.125 C 11.378906 -104.125 5.796875 -106.113281 1.734375 -110.09375 C -2.316406 -114.082031 -4.34375 -119.335938 -4.34375 -125.859375 C -4.34375 -136.585938 0.4375 -145.460938 10 -152.484375 C 19.5625 -159.515625 33.976562 -163.03125 53.25 -163.03125 Z M 53.25 -163.03125 "/></g></g></g></svg>